<svg version="1.1" id="Layer_1" xmlns="http://www.w3.org/2000/svg" xmlns:xlink="http://www.w3.org/1999/xlink" x="0px" y="0px"
	 width="100%" height="100%" viewBox="0 0 1024 352" enable-background="new 0 0 1024 352" xml:space="preserve">
<!-- White background rectangle -->
<rect width="1024" height="352" fill="#FFFFFF"/>
<!-- Original logo paths with black fill -->
<path fill="#000000" opacity="1.000000" stroke="none" 
	d="
M329.040741,184.027664 
	C336.839172,191.350525 346.237793,196.501450 354.702667,202.920715 
	C356.689636,204.427521 358.662323,206.022354 360.851593,207.179398 
	C366.171387,209.990952 368.509857,214.153870 369.006195,220.250961 
	C370.003265,232.498535 371.761414,244.683640 373.162109,256.899506 
	C373.310242,258.191620 373.539856,259.554749 372.177368,261.799652 
	C342.419830,258.332062 312.175354,254.807739 282.126038,251.306168 
	C281.431091,248.486237 283.802124,248.684845 285.051788,247.156036 
	C289.917450,245.465485 293.418884,242.252914 298.288147,241.189438 
	C308.798737,236.358322 318.948212,231.668274 329.794891,226.656067 
	C319.569885,218.304779 310.392273,210.609146 300.970306,203.225250 
	C297.802551,200.742706 296.335999,197.837891 295.888123,193.992981 
	C294.983582,186.226913 293.693695,178.502548 292.926392,170.725113 
	C292.601654,167.433334 290.893799,164.061661 292.568573,160.405472 
	C297.967773,161.840637 301.223663,166.461578 306.421875,168.220215 
	C314.142303,173.612946 321.591522,178.820312 329.040741,184.027664 
z"/>
<path fill="#000000" opacity="1.000000" stroke="none" 
	d="
M329.336578,184.106567 
	C321.591522,178.820312 314.142303,173.612946 306.194885,167.960175 
	C299.966553,163.396530 294.236481,159.278305 288.620575,155.242126 
	C286.836334,157.028564 286.691986,158.568176 286.451721,160.001709 
	C284.693695,170.490845 282.908997,180.977188 281.340118,191.495346 
	C280.869110,194.653122 279.741913,197.009140 277.113098,198.985199 
	C268.871246,205.180496 260.816254,211.623856 252.641205,217.909149 
	C251.420670,218.847534 250.241074,220.377945 248.015656,219.232010 
	C248.015656,216.208603 248.015656,213.076950 248.005203,209.962646 
	C247.994751,209.980011 247.969574,210.012009 247.969574,210.012009 
	C249.804840,201.025909 249.861832,191.853928 250.748886,182.771042 
	C252.332748,166.553421 253.656311,150.309952 255.021179,134.071625 
	C255.348053,130.182983 256.918549,127.383286 260.222198,125.027924 
	C270.522247,117.684341 280.583038,110.005440 290.748566,102.472733 
	C295.685638,98.814354 296.133881,98.924751 298.513184,104.441345 
	C309.455414,129.811600 320.399109,155.181320 331.275024,180.580002 
	C331.909241,182.061096 334.723206,185.082626 329.336578,184.106567 
z"/>
<path fill="#000000" opacity="1.000000" stroke="none" 
	d="
M297.927094,241.330505 
	C293.418884,242.252914 289.917450,245.465485 285.240906,246.909515 
	C273.714203,250.923706 263.036133,256.121582 252.744186,261.767456 
	C243.482269,266.848297 235.535645,267.288239 226.227493,262.235779 
	C217.193481,257.332123 207.433334,253.740814 197.900696,249.793945 
	C194.231857,248.274902 193.949020,246.758240 196.309494,243.610992 
	C212.990891,221.369568 229.520203,199.014114 246.136398,176.723648 
	C246.973404,175.600830 247.617661,174.041199 250.124512,174.058197 
	C250.559494,185.826721 247.889175,197.396088 247.967468,209.547150 
	C247.969574,210.012009 247.994751,209.980011 247.857056,210.339386 
	C247.512817,215.874756 245.772934,221.008408 246.655762,226.027618 
	C248.731064,226.766739 249.847610,225.819595 251.052444,225.367752 
	C261.346069,221.507431 271.630768,217.623184 281.913147,213.733047 
	C283.967926,212.955688 285.948303,212.375107 288.186554,213.304901 
	C298.493713,217.586700 308.844391,221.763702 319.157013,226.032562 
	C320.169342,226.451614 321.431030,226.805298 321.619965,228.319534 
	C320.847137,230.212997 318.913208,230.493790 317.330048,231.317108 
	C310.872803,234.675217 303.772003,236.788361 297.927094,241.330505 
z"/>
<path fill="#000000" opacity="1.000000" stroke="none" 
	d="
M500.068787,212.343887 
	C501.403168,210.633957 502.958496,210.772736 504.440552,210.769760 
	C513.104309,210.752380 521.768555,210.820999 530.431641,210.743393 
	C535.179260,210.700867 537.699951,213.103928 537.845703,217.630112 
	C538.070740,224.618469 538.083862,231.623108 537.882996,238.612091 
	C537.765503,242.698669 535.353882,245.072678 531.138733,245.091660 
	C519.143188,245.145721 507.141846,245.342972 495.153442,245.049606 
	C486.666626,244.841949 480.921356,238.679794 480.781464,230.172333 
	C480.633575,221.177734 480.619080,212.176712 480.776031,203.182526 
	C480.934998,194.076096 486.828613,188.037735 495.799469,187.911819 
	C507.959686,187.741150 520.126160,187.993866 532.285522,187.792358 
	C536.827209,187.717087 537.317383,190.034973 537.390564,193.722839 
	C537.470337,197.745789 536.229309,199.380127 531.989685,199.296753 
	C520.831055,199.077316 509.662506,199.370789 498.503571,199.159470 
	C493.736786,199.069199 491.952789,200.833725 492.128632,205.611694 
	C492.404175,213.098892 492.294189,220.605713 492.153992,228.100601 
	C492.078339,232.146530 493.790466,233.853775 497.815247,233.796387 
	C505.977600,233.680008 514.145569,233.613541 522.305420,233.791351 
	C527.458252,233.903625 526.512085,230.407547 526.729004,227.320877 
	C526.970947,223.878571 526.037598,221.968765 522.087036,222.144348 
	C516.932190,222.373413 511.759583,222.216232 506.594696,222.199341 
	C499.680481,222.176743 499.557190,222.047852 499.681946,215.257263 
	C499.697174,214.427399 499.812012,213.599380 500.068787,212.343887 
z"/>
<path fill="#000000" opacity="1.000000" stroke="none" 
	d="
M662.996338,187.837418 
	C667.156311,187.847595 670.820435,187.801971 674.481628,187.883926 
	C678.829163,187.981247 681.366394,190.040176 681.368896,194.621796 
	C681.377380,210.105865 681.326355,225.590240 681.419495,241.073792 
	C681.445984,245.482651 678.510620,245.124649 675.635254,245.176086 
	C672.764404,245.227448 670.504028,245.115601 670.460388,241.061584 
	C670.355530,231.333923 670.175049,231.335266 660.272095,231.330460 
	C653.778687,231.327301 647.280640,231.472748 640.793640,231.267899 
	C637.027771,231.149017 635.603149,232.690842 635.972717,236.293671 
	C636.074097,237.282425 635.924683,238.295471 636.005066,239.288086 
	C636.342224,243.449905 634.748596,245.246140 630.289856,245.259048 
	C625.842224,245.271942 624.465393,243.606277 624.593201,239.352036 
	C624.828064,231.533676 624.586121,223.702393 624.678467,215.878082 
	C624.864197,200.136032 636.248840,188.501633 652.010681,187.907455 
	C655.502747,187.775818 659.002747,187.855621 662.996338,187.837418 
M636.116638,213.788406 
	C635.993652,216.829865 635.463745,220.034393 640.202026,219.991226 
	C649.025085,219.910812 657.849304,219.965256 666.673035,219.965759 
	C669.010559,219.965897 670.544128,219.065094 670.536804,216.484177 
	C670.524597,212.157288 670.572327,207.827988 670.438477,203.504547 
	C670.356995,200.871948 669.251404,199.120621 666.157898,199.210098 
	C661.167542,199.354446 656.150513,199.029083 651.182922,199.405777 
	C642.925354,200.031998 637.928284,204.744385 636.116638,213.788406 
z"/>
<path fill="#000000" opacity="1.000000" stroke="none" 
	d="
M398.340637,151.640411 
	C393.052704,145.454529 392.158051,138.718353 395.105011,131.774658 
	C398.145905,124.609566 404.517151,122.240395 411.795654,122.131294 
	C421.281158,121.989120 430.772064,122.199493 440.257324,122.049889 
	C444.680267,121.980125 445.354065,124.306206 445.375183,128.039856 
	C445.396271,131.772568 444.401398,133.485504 440.319733,133.391510 
	C431.003571,133.176971 421.678589,133.303986 412.357574,133.358047 
	C407.283844,133.387466 404.949005,135.349731 405.012085,139.386200 
	C405.086517,144.148529 408.186066,145.004013 412.124054,144.979782 
	C419.280151,144.935776 426.452515,144.734161 433.589600,145.122055 
	C441.937531,145.575745 447.643372,150.100937 449.663544,157.080643 
	C451.715149,164.168930 449.637238,171.261154 444.216064,175.565643 
	C440.952515,178.156952 437.150757,179.228531 433.051422,179.240128 
	C421.732819,179.272171 410.412567,179.140991 399.096252,179.303558 
	C395.200073,179.359512 393.766144,177.895798 393.793610,174.040894 
	C393.819977,170.348007 394.506744,167.915726 398.924316,167.956589 
	C409.742615,168.056595 420.562775,167.928925 431.381897,167.970490 
	C435.385223,167.985870 438.888306,167.536850 438.910156,162.341034 
	C438.926941,158.346985 436.615845,156.420273 431.450256,156.356644 
	C424.626709,156.272598 417.801453,156.304688 410.976990,156.318665 
	C406.314636,156.328217 402.092834,155.156052 398.340637,151.640411 
z"/>
<path fill="#000000" opacity="1.000000" stroke="none" 
	d="
M399.506531,245.117432 
	C395.001953,244.435364 393.628937,241.805878 393.639496,237.986694 
	C393.679535,223.514603 393.702667,209.042175 393.640045,194.570267 
	C393.620941,190.157516 395.936493,188.010361 400.019592,187.958237 
	C409.664215,187.835083 419.341156,187.512131 428.951508,188.118286 
	C441.215851,188.891861 449.991394,198.725479 450.280579,211.007004 
	C450.351044,213.999649 450.335876,216.995392 450.306000,219.989166 
	C450.152802,235.337006 440.905823,244.777695 425.407104,245.138123 
	C416.928223,245.335297 408.440643,245.155899 399.506531,245.117432 
M431.175873,232.994568 
	C436.270721,231.374207 438.618286,227.652588 438.867523,222.543350 
	C439.053253,218.736206 439.112488,214.904526 438.909637,211.100739 
	C438.516083,203.719452 434.339935,199.597412 426.829773,199.305954 
	C421.027985,199.080811 415.209412,199.325668 409.401733,199.201050 
	C406.265625,199.133759 404.851532,200.347748 404.873749,203.565079 
	C404.935516,212.528778 404.903503,221.494003 404.800079,230.457367 
	C404.772705,232.828842 405.748657,233.799988 408.033630,233.735367 
	C415.486359,233.524567 422.959564,234.288910 431.175873,232.994568 
z"/>
<path fill="#000000" opacity="1.000000" stroke="none" 
	d="
M517.350708,156.817139 
	C516.819397,169.562195 509.481934,177.674255 497.290314,179.551208 
	C490.824371,180.546677 484.321503,180.634674 477.889587,179.723190 
	C464.209595,177.784531 457.555786,170.940048 456.105377,157.258743 
	C455.528168,151.813721 455.573273,146.293732 456.626923,140.837814 
	C458.881592,129.162643 467.471008,121.879921 479.400787,121.714798 
	C484.729492,121.641037 490.065521,121.558960 495.388916,121.746040 
	C507.849640,122.183922 516.940247,131.381119 517.325317,143.853073 
	C517.453735,148.012863 517.354919,152.179672 517.350708,156.817139 
M504.474365,138.256973 
	C502.230560,134.780685 498.874359,133.064026 494.913757,132.643982 
	C489.618805,132.082382 484.260834,131.937073 478.994659,132.674576 
	C470.998535,133.794388 467.456360,138.096924 467.327850,146.220566 
	C467.275269,149.545166 467.227966,152.875259 467.354095,156.196182 
	C467.643402,163.813110 472.406219,168.571503 479.971710,168.760391 
	C484.624451,168.876572 489.285278,168.879028 493.937622,168.753128 
	C500.721954,168.569504 505.062561,165.251526 506.120911,158.560867 
	C507.156677,152.013260 507.489227,145.323395 504.474365,138.256973 
z"/>
<path fill="#000000" opacity="1.000000" stroke="none" 
	d="
M704.808350,122.057457 
	C708.732361,121.676872 711.216797,123.189957 713.399414,125.855728 
	C717.692078,131.098465 722.203979,136.161667 727.066223,141.811646 
	C731.773315,136.328491 736.094360,131.322189 740.384583,126.289551 
	C744.418030,121.558083 750.778076,120.431297 757.008240,123.507408 
	C756.328247,126.399323 753.967163,128.167023 752.205688,130.272278 
	C747.291748,136.145264 742.307983,141.965302 737.176941,147.648361 
	C735.206970,149.830292 735.207703,151.417526 737.140869,153.612946 
	C742.861572,160.109589 748.405945,166.761536 754.012756,173.358322 
	C755.180664,174.732437 756.631470,175.939285 756.901855,177.875473 
	C751.292297,180.854889 744.273560,179.716675 740.454895,175.296051 
	C736.140381,170.301407 731.802612,165.326889 727.039307,159.842087 
	C722.715942,164.861298 718.346985,169.030869 715.083618,173.935974 
	C710.328064,181.083893 703.940002,179.353622 697.542175,178.906357 
	C696.813477,176.153519 698.608765,175.110260 699.732727,173.787048 
	C705.230286,167.314957 710.625916,160.747543 716.347473,154.478363 
	C719.008179,151.562958 718.538086,149.489548 716.167358,146.817993 
	C710.642212,140.591614 705.303955,134.198807 699.919434,127.848488 
	C698.770691,126.493660 697.112549,125.402977 697.218018,123.207710 
	C699.356934,121.355270 701.973145,122.339767 704.808350,122.057457 
z"/>
<path fill="#000000" opacity="1.000000" stroke="none" 
	d="
M691.301758,178.400391 
	C678.199951,179.883240 665.398621,179.502151 652.635986,178.895996 
	C646.434937,178.601471 641.529297,173.841644 640.808533,167.759766 
	C639.239380,154.519272 639.909485,141.193878 640.352844,127.902908 
	C640.480469,124.076797 643.047302,122.283920 646.681824,122.255913 
	C660.489685,122.149490 674.298401,122.134491 688.106750,122.102837 
	C692.698547,122.092308 692.148010,125.406044 692.252686,128.429276 
	C692.362488,131.599258 691.530396,133.428436 687.835266,133.378998 
	C677.520935,133.240967 667.200745,133.477859 656.888428,133.279861 
	C652.886963,133.203033 651.150513,134.324402 651.309082,138.623352 
	C651.584900,146.100571 651.336182,153.595871 651.388794,161.083008 
	C651.430359,166.987778 652.394592,167.927994 658.489380,167.960602 
	C666.808655,168.005127 675.128540,167.939423 683.448120,167.938797 
	C692.814209,167.938110 693.450562,168.735443 691.301758,178.400391 
z"/>
<path fill="#000000" opacity="1.000000" stroke="none" 
	d="
M594.729980,142.317719 
	C597.719971,148.480286 600.532104,154.313568 603.331238,160.119888 
	C605.995422,159.659454 606.181030,157.528870 606.935730,156.031158 
	C611.659302,146.658051 616.288757,137.237381 620.923340,127.819626 
	C623.990967,121.585930 627.622375,120.389854 634.625793,123.371231 
	C635.156128,124.624100 634.428223,125.630341 633.929199,126.649376 
	C626.089722,142.657486 618.219055,158.650421 610.396912,174.667023 
	C609.099976,177.322525 607.609497,179.810760 604.332520,179.905670 
	C600.984314,180.002686 599.481506,177.482056 598.189453,174.839005 
	C590.287292,158.674576 582.360168,142.522385 574.467651,126.353226 
	C574.044434,125.486252 573.859741,124.502876 573.573364,123.603241 
	C580.209778,120.287697 584.445984,121.553177 587.476379,127.644020 
	C589.851257,132.417389 592.194702,137.206390 594.729980,142.317719 
z"/>
<path fill="#000000" opacity="1.000000" stroke="none" 
	d="
M598.465088,240.644424 
	C598.846008,246.461060 594.807861,244.927444 591.924866,245.138687 
	C588.638306,245.379501 587.609802,243.612350 587.629883,240.537689 
	C587.706299,228.876068 587.403931,217.206116 587.756409,205.554825 
	C587.913635,200.357285 586.073547,198.725983 581.137085,199.134384 
	C577.166870,199.462875 573.145752,199.139847 569.147888,199.178391 
	C565.382446,199.214691 564.850464,196.783890 564.921448,193.833786 
	C564.990845,190.946991 564.793518,187.895020 569.049744,187.896194 
	C585.043274,187.900665 601.036743,187.887634 617.030273,187.887100 
	C621.649292,187.886963 621.084167,191.246964 621.201599,194.248718 
	C621.326111,197.432251 620.360046,199.363876 616.716553,199.227081 
	C612.890381,199.083420 609.054138,199.196671 605.222351,199.215973 
	C598.466614,199.250015 598.443970,199.255829 598.438660,205.792496 
	C598.429321,217.282043 598.450684,228.771622 598.465088,240.644424 
z"/>
<path fill="#000000" opacity="1.000000" stroke="none" 
	d="
M721.999939,245.174622 
	C714.506226,245.172455 707.512146,245.211823 700.518860,245.154678 
	C694.643127,245.106674 692.300903,243.250244 692.218933,237.617249 
	C692.000854,222.633942 692.143616,207.645752 692.046753,192.660110 
	C692.017212,188.092468 694.796082,187.834686 698.326172,187.752731 
	C702.280090,187.660950 703.525818,189.270721 703.467834,193.099518 
	C703.291443,204.752991 703.532959,216.413239 703.317078,228.065414 
	C703.238647,232.298935 704.431396,233.979080 708.950745,233.843292 
	C719.099243,233.538391 729.265442,233.870926 739.419495,233.681122 
	C743.470581,233.605392 745.137695,235.018326 745.117371,239.150864 
	C745.097595,243.173431 744.090149,245.446625 739.481812,245.232071 
	C733.832520,244.969025 728.161499,245.172531 721.999939,245.174622 
z"/>
<path fill="#000000" opacity="1.000000" stroke="none" 
	d="
M532.898438,122.105980 
	C537.166199,121.908249 538.099060,124.112137 538.080017,127.471535 
	C538.014954,138.963318 538.232849,150.458862 538.010132,161.946533 
	C537.923767,166.403702 539.239807,168.209381 543.933960,168.074875 
	C553.752625,167.793533 563.586609,168.091934 573.410889,167.938370 
	C577.581482,167.873184 579.348877,169.252182 579.378418,173.707336 
	C579.408386,178.225861 577.637634,179.401169 573.435913,179.336517 
	C560.614258,179.139267 547.787354,179.305786 534.963135,179.230682 
	C528.390991,179.192184 526.759644,177.491501 526.741028,170.847733 
	C526.700806,156.524124 526.872620,142.197998 526.642456,127.877968 
	C526.570984,123.427956 528.300232,121.790527 532.898438,122.105980 
z"/>
<path fill="#000000" opacity="1.000000" stroke="none" 
	d="
M470.890198,214.000000 
	C470.890442,222.815781 470.778320,231.133743 470.938782,239.446442 
	C471.021179,243.715378 469.365967,245.320389 465.033081,245.273529 
	C460.921417,245.229050 459.518250,243.787170 459.564301,239.683517 
	C459.737885,224.217987 459.730621,208.748383 459.571869,193.282547 
	C459.529846,189.190872 460.941132,187.721802 465.069000,187.726883 
	C469.335907,187.732147 471.108215,189.177216 470.959412,193.544144 
	C470.733002,200.189163 470.894165,206.847382 470.890198,214.000000 
z"/>
<path fill="#000000" opacity="1.000000" stroke="none" 
	d="
M558.395996,219.000092 
	C558.394531,226.478516 558.252258,233.460846 558.445740,240.433853 
	C558.553711,244.321976 556.673645,245.237869 553.264282,245.206055 
	C549.868042,245.174377 547.531311,244.719742 547.572937,240.388168 
	C547.726135,224.438965 547.727417,208.486542 547.575317,192.537338 
	C547.533569,188.161804 549.935486,187.821976 553.299377,187.782349 
	C556.743835,187.741776 558.527588,188.727707 558.447815,192.581360 
	C558.269043,201.217590 558.394165,209.860123 558.395996,219.000092 
z"/>
<path fill="#000000" opacity="1.000000" stroke="none" 
	d="
M687.356567,147.958618 
	C687.417725,149.723450 687.375916,151.058563 687.482971,152.381622 
	C687.699707,155.060974 686.702209,156.390823 683.832397,156.360153 
	C675.355103,156.269501 666.875854,156.248001 658.398499,156.323669 
	C654.648987,156.357132 654.555908,153.935745 654.703125,151.296967 
	C654.849670,148.668945 653.668884,145.106949 658.197876,145.053848 
	C666.840332,144.952515 675.484863,144.987732 684.128174,145.034653 
	C685.708618,145.043228 687.079651,145.640320 687.356567,147.958618 
z"/>
</svg>